<svg xmlns="http://www.w3.org/2000/svg" data-name="Layer 1" viewBox="0 0 100 100" x="0px" y="0px">
	<title>42</title>
	<path fill="#000000" d="M80.00012,84.00031c0-4.37208-6.95672-8.14795-17.03235-9.92164,2.94458,1.1604,4.75965,2.71155,4.75965,4.42164,0,3.58984-7.93677,6.5-17.7273,6.5s-17.72729-2.91016-17.72729-6.5c0-1.71009,1.81506-3.26124,4.75964-4.42164-10.07562,1.77369-17.03235,5.54956-17.03235,9.92164,0,6.07519,13.43146,11,30,11S80.00012,90.0755,80.00012,84.00031Z"/>
	<path fill="#000000" d="M50.8056,76.54291,71.2063,42.34174a24.6922,24.6922,0,1,0-42.41229,0L49.1947,76.54291A.93788.93788,0,0,0,50.8056,76.54291ZM36.40015,29.10016a13.6,13.6,0,1,1,13.6,13.6A13.6,13.6,0,0,1,36.40015,29.10016Z"/>
</svg>