<svg id="Layer_1" data-name="Layer 1" xmlns="http://www.w3.org/2000/svg" viewBox="0 0 396.94 599.94"><defs><style>.cls-1,.cls-2,.cls-3,.cls-4,.cls-5{fill:#fff;}.cls-1,.cls-2,.cls-3,.cls-4,.cls-5,.cls-7{stroke:#231f20;stroke-miterlimit:10;}.cls-1{stroke-width:19.81px;}.cls-2{stroke-width:16px;}.cls-3{stroke-width:19.55px;}.cls-4{stroke-width:19.06px;}.cls-5{stroke-width:20.99px;}.cls-6,.cls-7{fill:#231f20;}.cls-7{stroke-width:2.66px;}</style></defs><title>cart4</title><rect class="cls-1" x="313.59" y="267.48" width="5.91" height="247.75"/><rect class="cls-2" x="349.42" y="632.19" width="5.91" height="34.29" transform="translate(-418.39 735.81) rotate(-77.05)"/><rect class="cls-2" x="349.42" y="623.19" width="5.91" height="34.29" transform="translate(-432.93 447.15) rotate(-54.76)"/><path class="cls-3" d="M228.79,701.64l-45.71-3.49c-19.1-1.79-28-11.83-24.14-24.82l3.44-11.56c3.87-13,22.49-22.08,41.59-20.3l41.93,3.66C265,646.91,273.18,659,269.31,672l-3.44,11.56C262.64,694.34,252.77,701.79,228.79,701.64Z" transform="translate(-59 -111.48)"/><path class="cls-4" d="M317.06,675,162.37,654.62,104.24,647,238,121.1l206,2.7Z" transform="translate(-59 -111.48)"/><ellipse class="cls-5" cx="329.95" cy="530.65" rx="29.95" ry="50.04"/><polygon class="cls-6" points="318.86 302.21 57.3 272.93 74.77 206.52 333.5 233.93 318.86 302.21"/><polygon class="cls-6" points="289.97 415.21 29.79 382.23 46.02 315.52 304.34 346.62 289.97 415.21"/><polygon class="cls-6" points="261.4 527.21 0 491.4 16.14 423.86 275.65 457.76 261.4 527.21"/><path class="cls-7" d="M278.68,179.09l8,.12L283,227.84c-1.47,19.3-9.95,24.12-20.2,22.7a21.48,21.48,0,0,1-7.84-2.75l1.66-7.19a15.75,15.75,0,0,0,6.16,2.12c6.85.85,11.25-2.36,12.32-16.4Z" transform="translate(-59 -111.48)"/><path class="cls-7" d="M305.65,255.21l-11-75.87,8.93.14,5.06,38.39c1.29,9.61,2.4,19.26,3.05,26.74l.2,0c1.7-7.46,4.56-16.33,7.7-26l12.52-38.67,9.95.15L348.14,221c1.43,9.74,2.76,19.52,3.26,28.18l.23,0c2.3-8.73,5.2-17.57,8.44-27.54l13.84-41.1,11,.17L355.44,262,345,260.57,338.68,218a250,250,0,0,1-2.86-26h-.22c-1.9,7.76-4.11,15.34-7.56,25.25l-13.15,39.22Z" transform="translate(-59 -111.48)"/></svg>