<?xml version="1.0" encoding="utf-8"?>
<!-- Generator: Adobe Illustrator 21.1.0, SVG Export Plug-In . SVG Version: 6.00 Build 0)  -->
<svg version="1.1" id="Layer_1" xmlns="http://www.w3.org/2000/svg" xmlns:xlink="http://www.w3.org/1999/xlink" x="0px" y="0px"
	 viewBox="0 0 100 125" style="enable-background:new 0 0 100 125;" xml:space="preserve">
<title>Calendar</title>
<path d="M85.5,48.6V20.4c0-4.1-3.4-7.5-7.5-7.5h-8.2V7.5c0-1.4-1.1-2.5-2.5-2.5s-2.5,1.1-2.5,2.5v5.4H25.3V7.5
	c0-1.4-1.1-2.5-2.5-2.5s-2.5,1.1-2.5,2.5v5.4h-7.8c-4.1,0-7.5,3.4-7.5,7.5V78c0,4.1,3.4,7.5,7.5,7.5l0,0h36.1
	c9.2,11.2,25.8,12.8,36.9,3.5S98.3,63.3,89,52.1C88,50.8,86.8,49.6,85.5,48.6z M12.5,17.9h7.8v5.4c0,1.4,1.1,2.5,2.5,2.5
	s2.5-1.1,2.5-2.5v-5.4h39.5v5.4c0,1.4,1.1,2.5,2.5,2.5s2.5-1.1,2.5-2.5v-5.4H78c1.4,0,2.5,1.1,2.5,2.5v12.1H10V20.4
	C10,19,11.1,17.9,12.5,17.9z M12.5,80.5c-1.4,0-2.5-1.1-2.5-2.5V37.5h70.5v7.8C67.6,38.8,51.8,44,45.3,57c-3.7,7.4-3.7,16.1,0,23.5
	H12.5z M68.8,90C57,90,47.5,80.5,47.5,68.7S57,47.5,68.8,47.5S90,57,90,68.7l0,0C90,80.5,80.5,90,68.8,90z"/>
<path d="M71.2,66.2v-8.4c0-1.4-1.1-2.5-2.5-2.5s-2.5,1.1-2.5,2.5V68c0,1.8,1.4,3.2,3.2,3.2h13.4c1.4,0,2.5-1.1,2.5-2.5
	s-1.1-2.5-2.5-2.5L71.2,66.2z"/>
</svg>
