<svg xmlns="http://www.w3.org/2000/svg" xmlns:xlink="http://www.w3.org/1999/xlink" version="1.1" x="0px" y="0px" viewBox="0 0 100 100" enable-background="new 0 0 100 100" xml:space="preserve"><path d="M95.8,65.9H85.6c-1.8,0-3.2,1.4-3.2,3.2v10.2c0,1.8,1.4,3.2,3.2,3.2h10.2c1.8,0,3.2-1.4,3.2-3.2V69.1  C99,67.3,97.5,65.9,95.8,65.9z M94.9,76.5l-2,2l-2.3-2.3l-2.3,2.3l-2-2l2.3-2.3L86.5,72l2-2l2.3,2.3l2.3-2.3l2,2l-2.3,2.3L94.9,76.5  z M85.6,34.2h10.2c1.8,0,3.2-1.4,3.2-3.2V20.8c0-1.8-1.4-3.2-3.2-3.2H85.6c-1.8,0-3.2,1.4-3.2,3.2V31C82.3,32.8,83.8,34.2,85.6,34.2  z M86.5,23.6l2-2l2.3,2.3l2.3-2.3l2,2l-2.3,2.3l2.3,2.3l-2,2l-2.3-2.3l-2.3,2.3l-2-2l2.3-2.3L86.5,23.6z M95.8,41.7H85.6  c-1.8,0-3.2,1.4-3.2,3.2v10.2c0,1.8,1.4,3.2,3.2,3.2h10.2c1.8,0,3.2-1.4,3.2-3.2V45C99,43.2,97.5,41.7,95.8,41.7z M91.3,52.3l-2,2  l-2-2l-1.9-1.9l2-2l1.9,1.9l4.5-4.5l2,2L91.3,52.3z M73.2,24h6v3.7h-4.2v20.4h4.2v3.7h-4.2v20.4h4.2v3.7h-6c-1,0-1.9-0.8-1.9-1.9  V51.9H56.2v-3.7h15.2V25.9C71.4,24.9,72.2,24,73.2,24z M62.8,73.8v8.7H36h-8.1H1v-8.7c0-1.8,0.8-3.6,2.2-4.7  c7.9-6.5,16.4-10.8,18.1-11.6c0.2-0.1,0.3-0.3,0.3-0.5l0-4.5c-1.2-2-1.8-4.2-2.1-6.2c-0.7-0.1-1.6-1-2.6-4.5  c-1.3-4.7,0.1-5.4,1.3-5.3c0,0-3.3-11.2,4.7-16.1c0,0-1.4-1.1-1.3-2.8c0,0,7.8,0.9,11.6,0.1c3.8-0.8,7.8,2.2,8.5,5  c0,0,8-0.6,4.6,13.7c0,0,0,0.3-0.2,0.8l0.2,0c0.9,0.3,1.5,1.6,0.5,5.3c-1.3,4.6-2.5,4.8-3.2,4.3c-0.3,1.6-0.7,3.3-1.5,4.9  c0,2.3,0,4.4,0,5.2c0,0.2,0.1,0.4,0.3,0.5c1.7,0.8,10.2,5.1,18.1,11.6C62,70.2,62.8,72,62.8,73.8z"/></svg>