<?xml version="1.0" encoding="utf-8"?>
<!-- Generator: Adobe Illustrator 21.1.0, SVG Export Plug-In . SVG Version: 6.00 Build 0)  -->
<svg version="1.1" id="Layer_1" xmlns="http://www.w3.org/2000/svg" xmlns:xlink="http://www.w3.org/1999/xlink" x="0px" y="0px"
	 viewBox="0 0 100 125" style="enable-background:new 0 0 100 125;" xml:space="preserve">
<title>Artboard 15</title>
<path d="M0.7,55.8c0,0.8,0,1.6,0.1,2.4c0.6,3.7,4,6.3,7.7,5.7c0.3,0,0.5-0.1,0.8-0.2c1.7-0.5,3.2-1.6,4.1-3.2
	c0.4-0.7,0.7-1.6,0.8-2.4c0-0.2,0-0.4,0-0.6V57v-0.9c-0.1-4.7-0.3-8.9-0.4-12.5c-0.1-0.7-0.7-1.3-1.5-1.2c-0.6,0.1-1.2,0.6-1.2,1.2
	c-0.1,3.6-0.3,7.8-0.4,12.5V57v0.2v0.1c0,0.1,0,0.2,0,0.3c-0.2,1.2-1.1,2.1-2.3,2.4c-0.8,0.2-1.6,0-2.2-0.4c-0.6-0.5-1.1-1.2-1.1-2
	L5.2,40v-1.2c0-0.4,0-0.8,0-1.1c0-0.6,0.1-1.3,0.3-1.9c0.3-1.2,0.9-2.4,1.7-3.4c1.7-2.1,4.2-3.4,6.8-3.4h0.5h2.6c0.3,0,0.6,0,0.9,0
	c2.6-0.3,4.5-2.6,4.2-5.2c-0.1-1.2-0.7-2.3-1.6-3.1l-0.3-0.2l-0.2-0.2c-0.3-0.2-0.5-0.4-0.8-0.6c-2.8-2.5-3.1-6.9-0.6-9.7
	c1-1.1,2.3-1.9,3.8-2.2c1.3-0.2,2.6-0.1,3.8,0.3c1.2,0.4,2.2,1.2,3,2.2c0.8,1,1.2,2.3,1.3,3.5c0.2,1.9-0.5,3.9-1.9,5.3
	c-0.2,0.2-0.5,0.4-0.7,0.6c-0.1,0.1-0.3,0.2-0.4,0.3l-0.1,0.1l-0.3,0.2c-0.2,0.2-0.4,0.3-0.5,0.5c-1.8,2-1.7,5,0.3,6.8
	c0.8,0.7,1.8,1.2,2.9,1.3h2.1c0.3,0,0.7,0,1,0.1c2.4,0.3,4.5,1.6,5.8,3.5c0.1,0.1,0.2,0.3,0.3,0.4c0.1,0.1,0.2,0.3,0.3,0.5l1.3,2.2
	l2.6,4.4l0,0l0,0c0.8,1.2,2.4,1.6,3.6,0.9c0,0,0,0,0,0l6.8-4.1c0.9-0.6,1.8-1.1,2.8-1.6c1.2-0.4,2.5,0.4,2.9,1.6c0,0,0,0,0,0
	c0.3,0.9,0,1.9-0.7,2.5c-0.1,0.1-0.3,0.2-0.4,0.3l-0.8,0.5l-3,1.9l-5.8,3.7l-1.4,0.9l-0.7,0.4l-0.3,0.2L46,47.5
	c-0.6,0.3-1.3,0.5-2,0.5c-0.7,0-1.3-0.2-1.9-0.6c-0.3-0.2-0.5-0.4-0.8-0.6l-0.2-0.2L41,46.3l-0.5-0.6l-3.7-4.5l-0.1-0.1
	c-0.7-0.8-1.9-0.9-2.7-0.2c-0.4,0.4-0.7,0.9-0.7,1.5c0.2,7.2,0.3,13.2,0.5,18.1c0,0.8,0.6,1.4,1.4,1.4c0.8,0,1.4-0.6,1.4-1.4
	c0.2-3.6,0.3-7.7,0.4-12.5l0.2,0.2l0.5,0.6l0.2,0.3l0.3,0.4c0.4,0.5,1,1,1.5,1.4c2.4,1.7,5.6,1.9,8.2,0.6l0.5-0.3l0.3-0.2l0.7-0.4
	l1.4-0.8l6-3.5l3-1.8l0.8-0.5c0.4-0.2,0.7-0.5,1.1-0.7c2.2-1.8,3.1-4.8,2.3-7.5c-1.1-3.9-5.1-6.2-9-5.1c-0.8,0.2-1.6,0.6-2.4,1.1
	l-1.7,1l-4.5,2.7l-1.2-2.2l-1.3-2.3c-0.1-0.2-0.2-0.4-0.4-0.6s-0.3-0.5-0.4-0.7c-2.2-3.2-5.7-5.3-9.5-5.8c-0.5-0.1-1.1-0.1-1.6-0.1
	h-0.1c0.2-0.2,0.5-0.4,0.7-0.6c2.4-2.5,3.7-6,3.4-9.5c-0.2-2.3-1-4.5-2.4-6.4c-1.4-1.9-3.3-3.3-5.5-4.1c-2.2-0.8-4.5-1-6.8-0.5
	c-6.6,1.3-10.9,7.7-9.6,14.3c0.5,2.7,1.9,5.1,4,6.9l0.1,0.1h-1.4h-0.8c-6.3,0.3-11.6,4.7-13,10.8c-0.2,0.9-0.3,1.9-0.4,2.9
	c0,0.5,0,0.9,0,1.3V40l0.1,9.2l0.1,4.4L0.7,55.8z"/>
<path d="M96.5,88.2c-1.2-1.7-2.9-3-4.9-3.8c-0.9-0.3-1.9-0.6-2.9-0.7c3.2-2.3,5-6.2,4.7-10.1c-0.5-6-5.5-10.6-11.5-10.6
	c-6.3-0.1-11.5,5-11.6,11.3c0,3.7,1.7,7.2,4.7,9.4c-1,0.1-1.9,0.3-2.8,0.7c-2,0.7-3.7,2.1-4.9,3.8c-0.2,0.2-0.3,0.5-0.5,0.7
	c-0.6-1-1.3-1.9-2.2-2.6c-1.5-1.3-3.4-2.1-5.3-2.3c-0.2,0-0.5-0.1-0.7-0.1c3.6-2.5,5.4-6.9,4.7-11.2c-0.5-2.6-1.9-5-3.9-6.8
	c-4.8-4.1-12.1-3.6-16.2,1.2c-1.4,1.6-2.3,3.5-2.6,5.5c-0.7,3.8,0.7,7.7,3.5,10.3c0.4,0.3,0.7,0.6,1.1,0.9c-0.2,0-0.4,0-0.6,0.1
	c-2,0.3-3.8,1.1-5.3,2.4c-0.9,0.7-1.7,1.6-2.2,2.7c-0.1-0.2-0.3-0.5-0.4-0.7c-1.2-1.7-2.9-3-4.9-3.8c-0.9-0.3-1.9-0.6-2.9-0.7
	c3.2-2.3,5-6.2,4.7-10.1c-0.5-6-5.5-10.6-11.5-10.7c-6.3-0.1-11.5,5-11.6,11.3c0,3.7,1.7,7.2,4.7,9.4c-1,0.1-1.9,0.3-2.9,0.7
	c-2,0.7-3.7,2.1-4.9,3.8c-1.1,1.5-1.7,3.2-1.9,5c0,0.4-0.1,0.8-0.1,1.2V95v0.5l0.2,1.8c0,0.3,0.7,0.6,1.5,0.5s1.2-0.2,1.3-0.5
	c0.1-1.2,0.2-2.3,0.4-3.4c0.3-1.1,0.9-2.2,1.7-3.1c0.9-1,2-1.6,3.2-2c0.7-0.2,1.3-0.3,2-0.2H16c0.2,0,0.5-0.1,0.7-0.1
	c0.5-0.1,0.9-0.3,1.4-0.6c1.9-1.1,2.7-3.4,1.9-5.5c-0.2-0.5-0.4-1-0.8-1.4c-0.2-0.2-0.4-0.4-0.5-0.6c-0.2-0.2-0.5-0.4-0.5-0.4
	c-0.6-0.4-1.1-1-1.5-1.6c-1.8-2.6-1.3-6.1,1-8.2c2.4-2.2,6-2.2,8.4,0c2.4,2.1,2.8,5.6,1,8.2c-0.4,0.6-1,1.1-1.6,1.6l-0.2,0.2
	L25,80.4c-0.2,0.2-0.4,0.4-0.5,0.6c-0.3,0.4-0.6,0.9-0.8,1.4c-0.7,2,0.1,4.2,1.9,5.4c0.4,0.3,0.9,0.5,1.4,0.6
	c0.2,0.1,0.5,0.1,0.7,0.1h0.5c0.7,0,1.3,0.1,2,0.2c1.3,0.4,2.4,1,3.3,2c0.8,0.9,1.4,2,1.6,3.2c0.2,1.1,0.4,2.3,0.4,3.4
	c0,0.3,0.7,0.5,1.4,0.5s1.2-0.2,1.2-0.5l0.2-1.8V95v-0.6c0-0.2,0-0.4,0-0.6c0.5-1.8,1.6-3.3,3.1-4.3c1-0.7,2.2-1,3.4-1.1
	c0.2,0,0.3,0,0.5,0h0.2c0.2,0,0.4,0,0.6,0c0.9-0.1,1.7-0.5,2.4-1.1c1.5-1.3,1.9-3.4,1.2-5.1c-0.3-0.7-0.7-1.3-1.3-1.7
	c-0.2-0.2-0.4-0.3-0.4-0.3c-0.3-0.2-0.5-0.4-0.8-0.7c-0.5-0.5-0.9-1.1-1.2-1.7c-0.6-1.3-0.8-2.7-0.5-4.1c0.3-1.4,1.1-2.7,2.3-3.6
	c2.3-1.9,5.6-1.9,7.9,0c1.1,0.9,1.9,2.2,2.2,3.6c0.3,1.4,0.1,2.8-0.5,4.1c-0.3,0.6-0.7,1.2-1.2,1.7c-0.2,0.2-0.5,0.5-0.8,0.7
	l-0.2,0.1l-0.3,0.2c-0.2,0.2-0.3,0.3-0.5,0.5c-0.3,0.4-0.6,0.8-0.8,1.2c-0.8,1.8-0.3,3.8,1.2,5.1c0.7,0.6,1.5,0.9,2.4,1
	c0.2,0,0.4,0,0.6,0h0.2c0.2,0,0.3,0,0.5,0c1.2,0.1,2.4,0.5,3.4,1.1c1.5,1,2.6,2.5,3.1,4.2c0,0.2,0,0.5,0,0.8v0.6v0.5l0.2,1.8
	c0,0.3,0.7,0.6,1.5,0.5s1.2-0.2,1.3-0.5c0.1-1.2,0.2-2.3,0.4-3.4c0.3-1.1,0.9-2.2,1.7-3.1c0.9-1,2-1.6,3.2-2c0.7-0.2,1.3-0.3,2-0.2
	H76c0.2,0,0.5-0.1,0.7-0.1c0.5-0.1,0.9-0.3,1.4-0.6c1.8-1.1,2.6-3.4,1.9-5.4c-0.2-0.5-0.4-1-0.8-1.4c-0.2-0.2-0.4-0.4-0.6-0.6
	c-0.2-0.2-0.5-0.4-0.5-0.4c-0.6-0.4-1.1-1-1.5-1.6c-1.8-2.6-1.3-6.1,1-8.2c2.4-2.2,6-2.2,8.3,0c2.4,2.1,2.8,5.6,1,8.2
	c-0.4,0.6-1,1.1-1.6,1.6l-0.2,0.2L85,80.4c-0.2,0.2-0.4,0.4-0.5,0.6c-0.3,0.4-0.6,0.9-0.8,1.4c-0.7,2,0.1,4.2,1.9,5.4
	c0.4,0.3,0.9,0.5,1.4,0.6c0.2,0.1,0.5,0.1,0.7,0.1h0.5c0.7,0,1.3,0.1,2,0.2c1.3,0.4,2.4,1,3.3,2c0.8,0.9,1.4,1.9,1.7,3.1
	c0.2,1.1,0.4,2.3,0.4,3.4c0,0.3,0.7,0.5,1.4,0.5s1.2-0.2,1.2-0.5l0.2-1.8v-0.5v-0.6c0-0.4,0-0.8,0-1.2
	C98.1,91.4,97.5,89.7,96.5,88.2z M15.6,83.7L15.6,83.7L15.6,83.7L15.6,83.7z M28,83.7L28,83.7L28,83.7L28,83.7L28,83.7L28,83.7z
	 M45.7,83.7L45.7,83.7h-0.1l0,0C45.6,83.7,45.6,83.8,45.7,83.7L45.7,83.7z M58,83.7C58,83.7,58.1,83.7,58,83.7c0.1,0,0.1,0,0.2,0H58
	C57.9,83.8,58,83.8,58,83.7L58,83.7z M75.6,83.6L75.6,83.6L75.6,83.6L75.6,83.6z M88,83.6L88,83.6L88,83.6L88,83.6v0.1V83.6z"/>
<path d="M99.6,10.4c0-0.5-0.1-1-0.2-1.5c-0.2-1-0.6-2-1.2-2.9c-1.2-1.7-3-3-5-3.5c-0.5-0.1-1-0.2-1.5-0.2h-0.4h-2.9l-8.2,0.1
	c-5.4,0.1-10.7,0.2-15.5,0.3c-9.8,0.2-18.2,0.6-23.7,1c-0.4,0-0.7,0.7-0.7,1.4s0.3,1.2,0.7,1.2c5.6,0.5,13.9,0.8,23.7,1.1
	c4.9,0.1,10.1,0.2,15.5,0.3l8.2,0.1h3c0.2,0,0.4,0,0.5,0.1c0.7,0.2,1.3,0.6,1.7,1.2c0.2,0.3,0.3,0.6,0.4,0.9c0,0.2,0.1,0.4,0.1,0.5
	c0,0.1,0,0.3,0,0.4v0.5v4.2l0.1,8.2c0.1,5.4,0.1,10.6,0.3,15.5s0.3,9.4,0.4,13.4l0.1,1.5V55c0,0.2,0,0.3,0,0.5
	c0,0.6-0.2,1.2-0.6,1.8c-0.6,1-1.6,1.7-2.7,1.9c-0.3,0.1-0.5,0.7-0.5,1.5S91.6,62,92,62c2-0.1,3.9-1.1,5.1-2.7
	c0.7-0.9,1.2-2,1.4-3.2c0.1-0.3,0.1-0.6,0.1-0.9v-0.8l0.1-1.5c0.2-4,0.3-8.5,0.4-13.4s0.2-10.1,0.3-15.5l0.1-8.2v-4.2V11
	C99.6,10.8,99.6,10.7,99.6,10.4z"/>
</svg>
