<?xml version="1.0" encoding="utf-8"?>
<!-- Generator: Adobe Illustrator 21.1.0, SVG Export Plug-In . SVG Version: 6.00 Build 0)  -->
<svg version="1.1" id="Layer_1" xmlns="http://www.w3.org/2000/svg" xmlns:xlink="http://www.w3.org/1999/xlink" x="0px" y="0px"
	 viewBox="0 0 1000 1250" style="enable-background:new 0 0 1000 1250;" xml:space="preserve">
<g>
	<path d="M815.1,673.1V555.9c5,0.8,10.1,1.2,15.2,1.2c54.4,0,98.7-44.3,98.7-98.7c0-38.6-22.7-73.5-57.2-89.6
		c-2.9-41.9-37.9-75.2-80.6-75.2c-31.8,0-59.4,18.5-72.6,45.4c-4.6-60.5-55.3-108.4-117-108.4c-64.7,0-117.3,52.6-117.3,117.3
		c0,1.9,0,3.9,0.1,5.8c-4.4,0.8-8.8,1.9-13.1,3.3c-15.4-37.9-52.3-63.4-94.2-63.4c-39.6,0-75.5,23.2-92.1,58.6
		c-1.3,0.1-2.5,0.1-3.8,0.3c-5.4-11.5-13.7-21.8-23.9-29.5c-13.7-10.4-30.1-15.8-47.3-15.8c-43.3,0-78.6,35.3-78.6,78.6
		c0,2.7,0.1,5.5,0.4,8.2c-25.9,5.6-45.4,28.7-45.4,56.2c0,31.7,25.8,57.5,57.5,57.5c9.6,0,18.9-2.4,27.1-6.8
		c4.6,10.3,11.5,19.6,20.2,27.2c8,6.9,17.3,12,27.2,15.1v130H105.1v25h831v-25L815.1,673.1L815.1,673.1z M790.1,673.1h-54.5V522.5
		c5.1-1.6,9.9-3.8,14.5-6.6c10.3,14.4,24.1,25.6,40,32.6V673.1z M300.6,519c2.6-3.1,5-6.5,7.1-10c3.4,8.6,8.3,16.4,14.4,23.2v140.9
		h-21.5L300.6,519L300.6,519z M347.1,550.4c9.5,4.3,20,6.7,31,6.7c23.1,0,44.3-10.3,58.4-27.6c2.3,2,4.7,3.9,7.1,5.6v138h-96.5
		V550.4z M468.6,548.2c6.1,2.2,12.4,3.8,18.9,4.7v120.1h-18.9V548.2z M512.5,553.6c12.1-1.2,23.8-4.5,34.6-9.8v129.3h-34.6V553.6z
		 M572.1,553.5c11.6,6.5,24.7,10,38.3,10c10.9,0,21.6-2.3,31.5-6.6v116.2h-69.8V553.5z M666.8,539.6c6-6.2,11-13.3,14.6-21.1
		c9,4.5,18.9,7.1,29.1,7.5v147.1h-43.7L666.8,539.6L666.8,539.6z M190.3,477.8c-0.8-4.8-4.2-8.7-8.9-10c-4.7-1.3-9.7,0.1-12.9,3.8
		c-6.2,7-15.1,11.1-24.4,11.1c-17.9,0-32.5-14.6-32.5-32.5c0-17.9,14.6-32.5,32.5-32.5c0.6,0,1.3,0,2.1,0.1
		c4.1,0.3,8.1-1.5,10.6-4.7s3.3-7.5,2.1-11.4c-1.6-5.1-2.4-10.4-2.4-15.8c0-29.5,24-53.6,53.6-53.6c23.5,0,44.6,15.7,51.3,38.1
		c2,6.5,8.8,10.3,15.3,8.4c5-1.4,10.1-1.9,15.4-1.4c5.7,0.6,11-2.8,13-8.2c11-30.2,39.9-50.5,72.1-50.5c35.2,0,65.8,23.8,74.4,58
		c0.9,3.7,3.4,6.7,6.9,8.3c3.4,1.6,7.4,1.6,10.8-0.1c9.3-4.5,19.3-7.1,29.6-7.6c3.6-0.2,6.9-1.8,9.1-4.6c2.2-2.8,3.2-6.4,2.6-9.9
		c-0.8-4.9-1.2-9.9-1.2-14.8c0-50.9,41.4-92.3,92.3-92.3c50.9,0,92.3,41.4,92.3,92.3c0,15.7-4,31.2-11.6,44.8
		c-2.5,4.6-2,10.2,1.4,14.2c3.4,4,8.9,5.4,13.8,3.7c8.4-3,17.5-3.6,26.4-1.5c4.4,1,9.1-0.4,12.1-3.8c3-3.4,4-8.2,2.5-12.5
		c-2.1-5.9-3.1-12.1-3.1-18.4c0-30.7,25-55.7,55.7-55.7c30.7,0,55.7,25,55.7,55.7c0,0.8,0,1.5-0.1,2.3c-0.2,5.5,3.1,10.4,8.3,12.3
		c29.2,10.5,48.8,38.4,48.8,69.4c0,40.7-33.1,73.7-73.7,73.7c-27.7,0-52.9-15.3-65.6-40c-1.8-3.5-5.1-5.9-8.9-6.6
		c-3.9-0.7-7.8,0.5-10.7,3.1c-8.6,8-19.9,12.4-31.7,12.4c-11.1,0-21.9-4-30.3-11.2c-3.3-2.9-7.9-3.8-12.1-2.4
		c-4.2,1.4-7.3,4.9-8.3,9.1c-5.4,24.3-27.5,41.9-52.4,41.9c-17.3,0-33.6-8.4-43.7-22.5c-2-2.8-5-4.6-8.3-5.1
		c-0.6-0.1-1.2-0.1-1.8-0.1c-2.7,0-5.4,0.9-7.6,2.6c-13.4,10.3-29.4,15.8-46.3,15.8c-22.7,0-44-10-58.5-27.5
		c-2.7-3.2-6.9-4.9-11.1-4.4c-4.2,0.5-7.9,3.1-9.7,6.8c-8.6,17.3-25.9,28-45.2,28c-27.8,0-50.5-22.7-50.5-50.5
		c0-4.8,0.7-9.6,2.1-14.3c1.5-5-0.3-10.4-4.5-13.6c-4.2-3.1-9.9-3.3-14.3-0.4c-2.8,1.8-5.8,3.3-8.9,4.4c-5,1.8-8.3,6.5-8.3,11.8
		c0,0.1,0,0.1,0,0.2c-0.1,28.6-23.4,51.9-52,51.9C215.9,521.6,194.3,503.2,190.3,477.8z M243.6,546.6c11.5-0.3,22.3-3.1,32-7.9
		v134.4h-32L243.6,546.6L243.6,546.6z"/>
	<rect x="105.1" y="835.1" width="831" height="25"/>
	<rect x="105.1" y="751.1" width="61" height="25"/>
	<rect x="215.3" y="751.1" width="61" height="25"/>
	<rect x="325.8" y="751.1" width="61" height="25"/>
	<rect x="436" y="751.1" width="61" height="25"/>
	<rect x="544.2" y="751.1" width="61" height="25"/>
	<rect x="654.3" y="751.1" width="61" height="25"/>
	<rect x="764.9" y="751.1" width="61" height="25"/>
	<rect x="875" y="751.1" width="61" height="25"/>
	<path d="M235.1,209.2c2.3,3.8,6.4,6,10.6,6c1,0,2.1-0.1,3.1-0.4c5.3-1.4,9.1-6.1,9.3-11.6c0-0.4,2.3-39.2,23.4-49.2l-10.7-22.6
		c-20.3,9.6-29.7,31.2-34,48c-21.3-10.3-49-9-53.1-8.7l1.6,24.9C198.4,194.8,227.6,197,235.1,209.2z"/>
	<path d="M326.2,230.1c-1.4,5.3,0.9,10.9,5.6,13.8c2,1.2,4.3,1.8,6.5,1.8c3,0,5.9-1.1,8.3-3.1c0.3-0.3,29.9-25.6,51.7-17.3l8.9-23.4
		c-21-8-43.1,0.3-58.2,8.8c-7.4-22.5-27.5-41.5-30.5-44.3l-16.9,18.4C311.1,193.7,329.8,216.3,326.2,230.1z"/>
</g>
</svg>
