<svg xmlns="http://www.w3.org/2000/svg" xmlns:xlink="http://www.w3.org/1999/xlink" version="1.1" x="0px" y="0px" viewBox="0 0 100 100" enable-background="new 0 0 100 100" xml:space="preserve"><g><g><path fill="#000000" d="M14.953,38.911v11.587c0,1.104,0.896,2,2,2h3.182l3.384,36.706c0.279,3.031,2.786,5.317,5.83,5.317h35.94    c3.044,0,5.551-2.286,5.829-5.317l0.329-3.568c1.741-0.27,3.396-0.836,4.918-1.716c7.998-4.617,10.182-16.75,5.191-28.851    c-0.422-1.021-1.587-1.507-2.611-1.086c-1.021,0.421-1.508,1.59-1.086,2.612c4.216,10.223,2.747,20.258-3.494,23.861    c-3.4,1.963-7.822,1.796-12.455-0.471c-4.896-2.396-9.371-6.797-12.603-12.395c-0.654-1.132-1.235-2.294-1.755-3.47h3.326    c1.104,0,2-0.896,2-2s-0.896-2-2-2H38.313c-1.104,0-2,0.896-2,2s0.896,2,2,2h4.908c0.726,1.864,1.599,3.699,2.622,5.47    c3.625,6.279,8.706,11.246,14.309,13.987c2.47,1.208,4.918,1.921,7.27,2.153l-0.286,3.105c-0.089,0.96-0.883,1.684-1.847,1.684    h-35.94c-0.964,0-1.758-0.724-1.846-1.684l-3.35-36.338h14.162c1.104,0,2-0.896,2-2s-0.896-2-2-2h-19.36v-7.587h15.841    l8.558,0.017v1.099c0,3.68,2.994,6.673,6.673,6.673c0.95,0,1.855-0.2,2.673-0.559v6.205c0,3.926,3.194,7.12,7.12,7.12    s7.12-3.194,7.12-7.12V40.974l8.743,0.017v7.508h-6.075c-1.104,0-2,0.896-2,2s0.896,2,2,2h0.878l-2.235,24.24    c-0.102,1.1,0.708,2.074,1.808,2.175c0.063,0.006,0.124,0.008,0.186,0.008c1.022,0,1.894-0.779,1.989-1.816l2.27-24.607h3.181    c1.104,0,2-0.896,2-2V38.911c0-0.871-0.561-1.604-1.337-1.879c0.056-0.441,0.095-0.884,0.095-1.332    c0-2.06-0.604-4.055-1.743-5.763c-1.934-2.921-5.184-4.666-8.694-4.666c-1.18,0-2.334,0.197-3.438,0.586    c-2.384-4.186-6.891-6.879-11.795-6.879c-3.278,0-6.425,1.191-8.876,3.318c-2.726-1.841-5.944-2.839-9.234-2.839    c-2.617,0-5.121,0.596-7.441,1.771c-0.985,0.499-1.379,1.703-0.88,2.688s1.703,1.378,2.688,0.88c1.755-0.889,3.65-1.34,5.634-1.34    c2.956,0,5.837,1.067,8.114,3.004c0.833,0.709,2.082,0.615,2.802-0.207c1.819-2.082,4.442-3.275,7.194-3.275    c3.972,0,7.573,2.506,8.963,6.236c0.208,0.559,0.655,0.996,1.219,1.191c0.562,0.195,1.184,0.129,1.694-0.181    c0.346-0.21,0.667-0.37,0.983-0.488c0.058-0.022,0.115-0.046,0.17-0.073c0.705-0.261,1.445-0.393,2.203-0.393    c2.165,0,4.168,1.074,5.362,2.878c0.703,1.055,1.075,2.283,1.075,3.55c0,0.408-0.041,0.812-0.117,1.211h-9.384    c-1.104,0-2,0.896-2,2c0,0.01,0.003,0.019,0.003,0.029c0,0.01-0.003,0.02-0.003,0.03v15.375c0,1.72-1.399,3.12-3.12,3.12    s-3.12-1.4-3.12-3.12V42.026c0-1.104-0.896-2-2-2s-2,0.896-2,2c0,1.474-1.199,2.673-2.673,2.673s-2.673-1.199-2.673-2.673v-3.095    c0-0.003-0.001-0.007-0.001-0.01s0.001-0.007,0.001-0.01c0-1.104-0.896-2-2-2h-10.57l-12.588-0.024    c-0.022-0.306-0.033-0.614-0.033-0.923c0-1.862,0.399-3.653,1.186-5.323c0.344-0.73,0.762-1.432,1.241-2.083    c0.655-0.889,0.465-2.141-0.425-2.796c-0.889-0.656-2.142-0.466-2.796,0.425c-0.634,0.86-1.185,1.786-1.639,2.75    c-1.04,2.207-1.567,4.571-1.567,7.027c0,0.317,0.029,0.632,0.046,0.947h-1.255C15.849,36.911,14.953,37.807,14.953,38.911z"/><path fill="#000000" d="M66.886,15.549c-2.313-0.194-4.529,0.796-5.934,2.642c-0.67,0.879-0.5,2.134,0.379,2.803    c0.881,0.669,2.137,0.499,2.803-0.38c0.575-0.753,1.486-1.154,2.42-1.078c0.732,0.061,1.396,0.403,1.871,0.964    c0.475,0.561,0.703,1.272,0.642,2.004c-0.092,1.101,0.727,2.067,1.827,2.159c0.057,0.005,0.112,0.007,0.168,0.007    c1.029,0,1.904-0.79,1.991-1.834c0.149-1.797-0.409-3.544-1.574-4.921C70.313,16.539,68.683,15.698,66.886,15.549z"/><path fill="#000000" d="M51.002,12.135c0-3.67-2.986-6.656-6.657-6.656s-6.656,2.986-6.656,6.656s2.986,6.656,6.656,6.656    S51.002,15.806,51.002,12.135z M41.689,12.135c0-1.465,1.191-2.656,2.656-2.656s2.656,1.191,2.656,2.656s-1.191,2.656-2.656,2.656    S41.689,13.6,41.689,12.135z"/><path fill="#000000" d="M78.391,18.792c3.67,0,6.656-2.986,6.656-6.656s-2.986-6.656-6.656-6.656s-6.656,2.986-6.656,6.656    S74.721,18.792,78.391,18.792z M78.391,9.479c1.465,0,2.656,1.191,2.656,2.656s-1.191,2.656-2.656,2.656s-2.656-1.191-2.656-2.656    S76.926,9.479,78.391,9.479z"/><path fill="#000000" d="M20.3,21.03c0.07,0.11,0.15,0.21,0.24,0.3c0.38,0.37,0.89,0.59,1.42,0.59c0.13,0,0.26-0.02,0.39-0.04    c0.13-0.03,0.25-0.07,0.37-0.12c0.12-0.05,0.24-0.11,0.35-0.18c0.11-0.07,0.21-0.16,0.3-0.25c0.1-0.09,0.18-0.19,0.25-0.3    c0.07-0.11,0.14-0.23,0.19-0.35c0.05-0.12,0.09-0.24,0.11-0.37c0.03-0.13,0.04-0.26,0.04-0.39s-0.01-0.27-0.04-0.39    c-0.02-0.13-0.06-0.26-0.11-0.38c-0.05-0.12-0.12-0.23-0.19-0.34c-0.07-0.11-0.15-0.22-0.25-0.31c-0.09-0.09-0.19-0.17-0.3-0.25    c-0.11-0.07-0.23-0.13-0.35-0.18s-0.24-0.09-0.37-0.11c-0.65-0.13-1.34,0.08-1.81,0.54c-0.09,0.09-0.17,0.2-0.24,0.31    c-0.08,0.11-0.14,0.22-0.19,0.34S20.02,19.4,20,19.53c-0.03,0.12-0.04,0.26-0.04,0.39s0.01,0.26,0.04,0.39    c0.02,0.13,0.06,0.25,0.11,0.37C20.16,20.8,20.22,20.92,20.3,21.03z"/><path fill="#000000" d="M61.63,10.59c-0.05-0.12-0.11-0.24-0.19-0.35c-0.069-0.11-0.149-0.21-0.239-0.3    c-0.471-0.46-1.16-0.68-1.811-0.55c-0.12,0.03-0.25,0.07-0.37,0.12c-0.12,0.05-0.239,0.11-0.35,0.18    c-0.11,0.07-0.21,0.16-0.3,0.25c-0.09,0.09-0.181,0.19-0.25,0.3c-0.07,0.11-0.13,0.23-0.181,0.35c-0.05,0.12-0.09,0.25-0.12,0.37    c-0.02,0.13-0.039,0.26-0.039,0.39c0,0.53,0.22,1.05,0.59,1.42c0.09,0.09,0.189,0.17,0.3,0.25c0.11,0.07,0.229,0.13,0.35,0.18    c0.12,0.05,0.25,0.09,0.37,0.11c0.13,0.03,0.26,0.04,0.391,0.04c0.529,0,1.039-0.21,1.42-0.58c0.369-0.37,0.58-0.89,0.58-1.42    c0-0.13-0.011-0.26-0.04-0.39C61.72,10.84,61.68,10.71,61.63,10.59z"/></g></g></svg>