<?xml version="1.0" encoding="utf-8"?>
<!-- Generator: Adobe Illustrator 21.1.0, SVG Export Plug-In . SVG Version: 6.00 Build 0)  -->
<svg version="1.1" id="Layer_1" xmlns="http://www.w3.org/2000/svg" xmlns:xlink="http://www.w3.org/1999/xlink" x="0px" y="0px"
	 viewBox="0 0 100 125" style="enable-background:new 0 0 100 125;" xml:space="preserve">
<path d="M39.1,46h0.1h0.1h0.1h0.1c4.2-0.1,7.5-1.5,10-4.3c5.5-6.2,4.6-16.8,4.5-17.8C53.4,11.7,44.5,8.8,39.3,9
	C34,8.8,25.1,11.8,24.6,23.9c-0.1,1-1,11.6,4.5,17.8C31.5,44.5,34.9,45.9,39.1,46z M28.3,24.2v-0.1c0.5-11.2,9.2-11.5,10.9-11.4h0.1
	c1.7-0.1,10.4,0.2,10.9,11.4v0.1c0,0.1,1,9.9-3.6,15c-1.8,2-4.2,3-7.4,3.1c0,0,0,0-0.1,0l0,0l0,0c0,0,0,0-0.1,0
	c-3.2,0-5.6-1-7.4-3.1C27.3,34.1,28.3,24.3,28.3,24.2z M68.7,63.7c0,0.9,0,4.5-0.7,6.4c-0.3,0.7-1,1.2-1.7,1.2c-0.2,0-0.5,0-0.7-0.1
	c-1-0.4-1.4-1.5-1.1-2.4c0.4-0.9,0.5-3.5,0.4-5c0-0.1,0-0.1,0-0.2c0.2-2.7,0-7.3-3.8-8.2c-7.1-1.8-12.9-5.8-13.1-6
	c-0.8-0.6-1-1.8-0.5-2.6c0.6-0.8,1.8-1.1,2.6-0.5c0.1,0,5.4,3.8,11.9,5.4C66.7,52.9,69.1,57.3,68.7,63.7z M31.2,46.8
	c0.6,0.8,0.4,2-0.5,2.6c-0.2,0.2-6,4.2-13.1,6c-3.7,0.9-4,5.6-3.8,8.2c0,0.1,0,0.1,0,0.2c0,1.5,0.1,4.1,0.5,5c0.4,1-0.1,2.1-1.1,2.4
	c-0.2,0.1-0.5,0.1-0.7,0.1c-0.7,0-1.5-0.4-1.7-1.2c-0.7-1.8-0.7-5.5-0.7-6.4c-0.4-6.5,2-10.9,6.6-12c6.5-1.6,11.8-5.4,11.9-5.4
	C29.4,45.7,30.6,45.9,31.2,46.8z M44,47.3c-1,0-1.9,0.8-1.9,1.9c0,0.8-0.3,1.5-0.9,2c-0.1,0.1-0.2,0.2-0.3,0.3
	C40.5,51.8,40,52,39.4,52c-1.5,0-2.7-1.2-2.7-2.7c0-1-0.8-1.9-1.9-1.9s-1.9,0.8-1.9,1.9c0,1.5,0.5,2.9,1.4,4l-1.4,32
	c0,0.6,0.2,1.1,0.6,1.5l4.4,4c0.4,0.3,0.8,0.5,1.3,0.5s0.9-0.2,1.3-0.5l4.5-4c0.4-0.4,0.6-0.9,0.6-1.5l-1.4-31.6
	c1.1-1.1,1.7-2.7,1.7-4.3C45.9,48.1,45,47.3,44,47.3z M39.3,86.7l-2.5-2.2l1.3-29c0.4,0.1,0.9,0.1,1.4,0.1c0.4,0,0.7,0,1.1-0.1
	l1.3,28.9L39.3,86.7z M89.9,63c-0.1,1-0.9,1.8-1.9,1.8h-0.1c-1-0.1-1.8-0.9-1.8-2c0.1-1.4,0.1-5.8-2.2-6.6
	c-12.4-3.8-11.4-10.4-11.2-11.3l0,0v-0.1l0,0c0.2-0.8,1-1.4,1.9-1.4c1,0,3.4-0.1,5.4-0.9c-1.3-1.5-2.4-4.1-2-8.6
	c0.5-4.9-0.2-8.7-1.8-10.3c-0.8-0.8-1.7-1.1-3-0.9c-0.6,0.1-1.2-0.2-1.6-0.7c-0.2-0.2-1.9-2-5.6-0.6h-0.1c-1.6,0.6-5.2,2-5,10.8
	c0.1,4.9-0.6,8.3-2.3,10.4c1.1,0.5,2.9,1,5.5,0.9l0,0c1,0,1.9,0.8,1.9,1.9c0,1-0.8,1.9-1.9,1.9c-0.1,0-0.1,0-0.2,0
	c-7.4,0-9.9-3.3-10.1-3.7c-0.4-0.6-0.4-1.3-0.1-1.9c0.3-0.6,0.8-0.9,1.5-1c0.2-0.1,2.1-1.2,2-8.4c-0.3-11.5,5.5-13.7,7.4-14.4h0.1
	c4.7-1.8,7.7-0.1,9.1,1c2,0,3.8,0.7,5.1,2.1c3.2,3.2,3.3,9,2.9,13.4c-0.5,5.3,1.7,6.4,2,6.6c0.7,0.1,1.1,0.6,1.3,1.3
	c0.2,0.7,0,1.4-0.5,1.8c-2.2,2.3-5.7,3-8,3.2c0.7,1.6,2.9,3.8,8.4,5.5C88.5,53.8,90.2,57.4,89.9,63z"/>
</svg>
