<?xml version="1.0" encoding="utf-8"?>
<!-- Generator: Adobe Illustrator 21.1.0, SVG Export Plug-In . SVG Version: 6.00 Build 0)  -->
<svg version="1.1" id="Layer_1" xmlns="http://www.w3.org/2000/svg" xmlns:xlink="http://www.w3.org/1999/xlink" x="0px" y="0px"
	 viewBox="0 0 100 125" style="enable-background:new 0 0 100 125;" xml:space="preserve">
<g>
	<path d="M77.1,5v14.5H17.1c-5.2,0-9.4,4.2-9.4,9.4v7.3v40.1v7.2C7.7,89.9,9.8,95,23.6,95v-9.2v0h59.3c5.2,0,9.4-4.2,9.4-9.4V14.2
		C92.3,9.1,88.2,5,77.1,5z M77.5,23.3c5.1,0,8.7-1,11.1-2.5v33.3h-36L36.9,38.5V23.3h40.3C77.3,23.3,77.4,23.3,77.5,23.3z
		 M36.9,54.1V42.8l11.3,11.3H36.9z M51.3,57.2l24.8,24.8H36.9V57.2H51.3z M31.9,33.5L21.7,23.3h10.2L31.9,33.5L31.9,33.5z M11.4,29
		c0-3.1,2.5-5.7,5.7-5.7h0.3l14.6,14.6v16.3h-8.3v-4.4V36.6C12.5,36.6,11.4,34,11.4,29z M23.6,57.2h8.3v24.8h-8.3V57.2z M82.9,82.1
		h-2.5L55.6,57.2h32.9v19.2C88.6,79.5,86,82.1,82.9,82.1z"/>
	<path d="M69,43.9c0,0.1,0,0.2,0,0.2c0,0.1,0,0.2,0.1,0.3c0,0.1,0,0.2,0,0.2c1,4.7,6.5,8.5,6.5,8.5s5.5-3.9,6.5-8.5
		c0-0.1,0-0.2,0-0.2c0-0.1,0-0.2,0.1-0.3c0-0.1,0-0.2,0-0.2c0-0.2,0-0.4,0-0.6c0-3.7-3-6.6-6.6-6.6c-3.7,0-6.6,3-6.6,6.6
		C69,43.5,69,43.7,69,43.9z M75.6,40.9c1.8,0,3.3,1.5,3.3,3.3c0,1.8-1.5,3.3-3.3,3.3c-1.8,0-3.3-1.5-3.3-3.3
		C72.2,42.4,73.7,40.9,75.6,40.9z"/>
</g>
</svg>
