<svg xmlns="http://www.w3.org/2000/svg" data-name="Layer 1" viewBox="0 0 100 125" x="0px" y="0px"><defs><style>.cls-1{stroke:#000;stroke-miterlimit:10;stroke-width:0.01px;}</style></defs><title>collections_08</title><path class="cls-1" d="M32.44,45.41a58.06,58.06,0,0,1,.46-7.2,19.84,19.84,0,0,1,.8-3.06,3.1,3.1,0,0,1,2-2l9.42-3a3.55,3.55,0,0,1,.58-0.1c0.75,3.87,1.7,7.63,2.79,11.32h0.06c0.08-.68.15-1.36,0.22-2,0.16-1.49.31-3,.47-4.49a1.91,1.91,0,0,0-.1-1c-0.13-.32-0.24-0.65-0.37-1a1.48,1.48,0,0,1,.18-1.41,0.37,0.37,0,0,1,.25-0.16c0.86,0,1.71,0,2.57,0a1.2,1.2,0,0,1,.5,1.41,6.65,6.65,0,0,1-.3.79,2.86,2.86,0,0,0-.2,1.58c0.23,2.06.44,4.13,0.65,6.2,0,0,0,.06,0,0.2,0.1-.31.18-0.53,0.24-0.75,1-3.36,1.82-6.75,2.51-10.22,0.1-.5.11-0.52,0.53-0.39l4.42,1.38c1.67,0.53,3.33,1.1,5,1.62a3.65,3.65,0,0,1,2.35,2.69,20.55,20.55,0,0,1,.83,4.53c0.08,1.09.13,3.43,0.18,5.13a1.08,1.08,0,0,1-1.08,1.11H33.52A1.07,1.07,0,0,1,32.44,45.41Zm18-19.17A8.24,8.24,0,1,0,42.24,18,8.25,8.25,0,0,0,50.48,26.24Zm21.91,24.3H27.61a1.4,1.4,0,0,0-1.4,1.4V57.3a1.4,1.4,0,0,0,1.4,1.4H72.39a1.4,1.4,0,0,0,1.4-1.4V51.94A1.4,1.4,0,0,0,72.39,50.54ZM64.55,62.74H35.45a2.15,2.15,0,0,0-2.15,2.15V88.1a2.15,2.15,0,0,0,2.15,2.15h29.1A2.15,2.15,0,0,0,66.7,88.1V64.89A2.15,2.15,0,0,0,64.55,62.74Z"/></svg>