<svg id="Layer_1" data-name="Layer 1" xmlns="http://www.w3.org/2000/svg" viewBox="0 0 97.93 84.7"><defs><style>.cls-1{fill:none;}</style></defs><title>pioneers</title><path d="M13.57,25.36l1.71,29a3.41,3.41,0,0,0,2.81,3.36,3.16,3.16,0,0,0,0,.45V89.27a3.18,3.18,0,0,0,3.18,3.19l.33,0h6.88c1.76,0,3.19.28,3.19-1.48a3.19,3.19,0,0,0-3.19-3.19l-4-1V58.15a3.32,3.32,0,0,0,0-.51,3.42,3.42,0,0,0,2.53-3.3l-.19-13.48,8,9.21a3,3,0,1,0,4.48-3.89L26.59,31.65l-.06-4.1L17,21.94A3.42,3.42,0,0,0,13.57,25.36Z" transform="translate(-13.57 -7.76)"/><circle cx="7.67" cy="6.59" r="6.59"/><path d="M71.2,21.95l-9.55,5.6-.06,4.1L49,46.18a3,3,0,0,0,4.48,3.89l8-9.21-.19,13.48a3.41,3.41,0,0,0,2.54,3.3,3,3,0,0,0,0,.51V86.83l-4,1A3.19,3.19,0,0,0,56.55,91c0,1.76,1.43,1.48,3.19,1.48h6.88l.33,0a3.18,3.18,0,0,0,3.18-3.19V58.15a3.17,3.17,0,0,0,0-.45,3.41,3.41,0,0,0,2.82-3.36l1.71-29A3.42,3.42,0,0,0,71.2,21.95Z" transform="translate(-13.57 -7.76)"/><circle cx="53.38" cy="6.59" r="6.59"/><path class="cls-1" d="M66.95,53.62a3.9,3.9,0,0,0-3.62,2.45h7.24A3.9,3.9,0,0,0,66.95,53.62Z" transform="translate(-13.57 -7.76)"/><path d="M75.69,56.07H72.22a5.7,5.7,0,0,0-10.54,0H58.21c-1,0-1.77.58-1.77,1.29V70.13c0,.71.79,1.29,1.77,1.29H75.69c1,0,1.77-.58,1.77-1.29V57.36C77.46,56.65,76.67,56.07,75.69,56.07Zm-12.36,0a3.9,3.9,0,0,1,7.24,0Z" transform="translate(-13.57 -7.76)"/><path d="M93.22,40.86l-.17,13.48a3.37,3.37,0,0,0,2.2,3.3,3.43,3.43,0,0,0,0,.51V86.83l-3.48,1A3,3,0,0,0,89,91c0,1.76,1.24,1.48,2.76,1.48h6l.29,0a3,3,0,0,0,2.76-3.19V58.15a3.65,3.65,0,0,0,0-.45,3.31,3.31,0,0,0,2.44-3.36l1.48-29a3.21,3.21,0,0,0-3-3.42l-8.27,5.6s-2.72,3.12-2.85,6.55C90.36,39,93.22,40.86,93.22,40.86Z" transform="translate(-13.57 -7.76)"/><circle cx="83.38" cy="6.59" r="6.59"/><polygon points="95.68 68.63 73.09 68.63 79.49 33.1 90.16 33.1 95.68 68.63"/><rect x="103.21" y="26.38" width="4.22" height="17.57" rx="1.87" ry="1.87" transform="translate(-13.78 61.96) rotate(-36.59)"/><rect x="103.21" y="37.38" width="4.22" height="17.57" rx="1.87" ry="1.87" transform="translate(148.79 138.26) rotate(-143.41)"/><circle cx="90.38" cy="6.59" r="3.67"/></svg>